<?xml version="1.0" encoding="UTF-8" standalone="no"?><!DOCTYPE svg PUBLIC "-//W3C//DTD SVG 1.1//EN" "http://www.w3.org/Graphics/SVG/1.1/DTD/svg11.dtd"><svg width="100%" height="100%" viewBox="0 0 267 267" version="1.1" xmlns="http://www.w3.org/2000/svg" xmlns:xlink="http://www.w3.org/1999/xlink" xml:space="preserve" xmlns:serif="http://www.serif.com/" style="fill-rule:evenodd;clip-rule:evenodd;stroke-linecap:square;stroke-linejoin:round;stroke-miterlimit:1.5;"><path d="M208.333,13.448l0,239.771c0,7.422 -6.026,13.448 -13.448,13.448l-181.437,-0c-7.422,-0 -13.448,-6.026 -13.448,-13.448l0,-239.771c0,-7.422 6.026,-13.448 13.448,-13.448l181.437,-0c7.422,-0 13.448,6.026 13.448,13.448Z" style="fill:#fafafa;"/><path d="M208.333,13.448l0,239.771c0,7.422 -6.026,13.448 -13.448,13.448l-181.437,-0c-7.422,-0 -13.448,-6.026 -13.448,-13.448l0,-239.771c0,-7.422 6.026,-13.448 13.448,-13.448l181.437,-0c7.422,-0 13.448,6.026 13.448,13.448Zm-191.666,3.219l-0,233.333l175,0l-0,-233.333l-175,-0Z" style="fill:#0a0a0a;"/><path d="M102.34,44.59l72.31,0" style="fill:none;stroke:#0a0a0a;stroke-width:8.33px;"/><path d="M38.407,79.167l141.681,-0" style="fill:none;stroke:#0a0a0a;stroke-width:4.17px;"/><path d="M38.407,218.75l141.681,0" style="fill:none;stroke:#0a0a0a;stroke-width:4.17px;"/><path d="M24.592,95.833l155.496,0" style="fill:none;stroke:#0a0a0a;stroke-width:4.17px;"/><path d="M24.592,112.5l155.496,0" style="fill:none;stroke:#0a0a0a;stroke-width:4.17px;"/><path d="M24.592,129.167l77.748,-0" style="fill:none;stroke:#0a0a0a;stroke-width:4.17px;"/><path d="M24.592,235.417l77.748,-0" style="fill:none;stroke:#0a0a0a;stroke-width:4.17px;"/><path d="M69.591,197.66l69.151,-0" style="fill:none;stroke:#0a0a0a;stroke-width:4.17px;"/><rect x="24.592" y="27.541" width="64.962" height="34.098" style="fill:#fafafa;"/><path d="M89.553,27.541l0,34.098l-64.961,-0l-0,-34.098l64.961,0Zm-4.166,4.167l-56.629,-0l0,25.764l56.629,0l-0,-25.764Z" style="fill:#0a0a0a;"/><rect x="67.708" y="147.917" width="72.917" height="41.667" style="fill:#fafafa;"/><path d="M140.625,147.917l0,41.666l-72.917,0l0,-41.666l72.917,-0Zm-4.167,4.166l-64.583,0l-0,33.334l64.583,-0l0,-33.334Z" style="fill:#0a0a0a;"/><g><path d="M111.279,191.77l10.708,-31.234l28.24,-17.107l-10.707,31.234l-28.241,17.107Z" style="fill:#fafafa;"/><path d="M111.279,191.77l10.708,-31.234l28.24,-17.107l-10.707,31.234l-28.241,17.107Zm3.834,-4.758l22.681,-13.74l8.6,-25.085l-22.682,13.74l-8.599,25.085Z"/><path d="M112.791,189.894l17.962,-22.295" style="fill:none;stroke:#000;stroke-width:0.83px;stroke-linejoin:miter;"/><path d="M132.695,165.19c1.094,0.881 1.266,2.485 0.385,3.579c-0.882,1.094 -2.485,1.267 -3.579,0.385c-1.094,-0.881 -1.267,-2.485 -0.386,-3.579c0.882,-1.094 2.486,-1.267 3.58,-0.385Z" style="fill:#fafafa;"/><path d="M132.695,165.19c1.094,0.881 1.266,2.485 0.385,3.579c-0.882,1.094 -2.485,1.267 -3.579,0.385c-1.094,-0.881 -1.267,-2.485 -0.386,-3.579c0.882,-1.094 2.486,-1.267 3.58,-0.385Zm-0.523,0.649c-0.736,-0.593 -1.815,-0.477 -2.408,0.259c-0.593,0.736 -0.476,1.814 0.259,2.407c0.736,0.593 1.815,0.477 2.408,-0.259c0.593,-0.736 0.477,-1.814 -0.259,-2.407Z"/><path d="M259.212,1.069c1.658,-1.4 4.076,-1.428 5.766,-0.066c1.69,1.361 2.177,3.73 1.162,5.648c-10.761,20.338 -26.026,49.187 -29.125,55.043c-0.373,0.705 -0.828,1.363 -1.356,1.961c-8.962,10.137 -90.669,102.559 -90.669,102.559l-15.912,-12.82c0,-0 72.922,-99.5 80.92,-110.414c0.472,-0.643 1.018,-1.228 1.627,-1.742c5.063,-4.274 30.004,-25.327 47.587,-40.169Z" style="fill:#fafafa;"/><path d="M259.212,1.069c1.658,-1.4 4.076,-1.428 5.766,-0.066c1.69,1.361 2.177,3.73 1.162,5.648l-29.125,55.043c-0.373,0.705 -0.828,1.363 -1.356,1.961l-90.669,102.559l-15.912,-12.82l80.92,-110.414c0.472,-0.643 1.018,-1.228 1.627,-1.742l47.587,-40.169Zm2.688,3.184l-47.587,40.169c-0.357,0.301 -0.677,0.644 -0.954,1.021l-78.567,107.203l9.713,7.826l88.032,-99.577c0.31,-0.35 0.577,-0.736 0.795,-1.149l29.125,-55.044c0.082,-0.155 0.043,-0.345 -0.093,-0.455c-0.136,-0.109 -0.331,-0.107 -0.464,0.006Z"/></g></svg>