<?xml version="1.0" encoding="UTF-8" standalone="no"?><!DOCTYPE svg PUBLIC "-//W3C//DTD SVG 1.1//EN" "http://www.w3.org/Graphics/SVG/1.1/DTD/svg11.dtd"><svg width="100%" height="100%" viewBox="0 0 267 267" version="1.1" xmlns="http://www.w3.org/2000/svg" xmlns:xlink="http://www.w3.org/1999/xlink" xml:space="preserve" xmlns:serif="http://www.serif.com/" style="fill-rule:evenodd;clip-rule:evenodd;stroke-linecap:round;stroke-linejoin:round;stroke-miterlimit:1.5;"><rect x="11.397" y="62.282" width="241.71" height="190.748" style="fill:#fafafa;"/><rect x="11.397" y="11.679" width="241.71" height="50.423" style="fill:#aaa;"/><path d="M266.667,24.327l-0,218.013c-0,13.426 -10.901,24.327 -24.327,24.327l-218.013,-0c-13.426,-0 -24.327,-10.901 -24.327,-24.327l-0,-218.013c-0,-13.426 10.901,-24.327 24.327,-24.327l218.013,-0c13.426,-0 24.327,10.901 24.327,24.327Zm-16.667,-0c0,-4.228 -3.432,-7.66 -7.66,-7.66l-218.013,-0c-4.228,-0 -7.66,3.432 -7.66,7.66l-0,218.013c-0,4.228 3.432,7.66 7.66,7.66l218.013,0c4.228,0 7.66,-3.432 7.66,-7.66l0,-218.013Z"/><path d="M16.159,62.5c235.071,0 235.071,0.359 235.071,0.359" style="fill:none;stroke:#000;stroke-width:4.17px;"/></svg>