<?xml version="1.0" encoding="UTF-8" standalone="no"?><!DOCTYPE svg PUBLIC "-//W3C//DTD SVG 1.1//EN" "http://www.w3.org/Graphics/SVG/1.1/DTD/svg11.dtd"><svg width="100%" height="100%" viewBox="0 0 267 267" version="1.1" xmlns="http://www.w3.org/2000/svg" xmlns:xlink="http://www.w3.org/1999/xlink" xml:space="preserve" xmlns:serif="http://www.serif.com/" style="fill-rule:evenodd;clip-rule:evenodd;stroke-linecap:round;stroke-linejoin:round;stroke-miterlimit:1.5;"><circle cx="133.333" cy="123.738" r="89.436" style="fill:#fafafa;"/><path d="M133.333,34.301c49.362,0 89.437,40.075 89.437,89.437c-0,49.361 -40.075,89.436 -89.437,89.436c-49.361,0 -89.436,-40.075 -89.436,-89.436c-0,-49.362 40.075,-89.437 89.436,-89.437Zm0,16.667c-40.162,-0 -72.769,32.607 -72.769,72.77c-0,40.162 32.607,72.769 72.769,72.769c40.163,0 72.77,-32.607 72.77,-72.769c0,-40.163 -32.607,-72.77 -72.77,-72.77Z" style="fill:#0a0a0a;"/><path d="M199.187,182.529l-131.707,-0l32.927,47.802l65.853,0l32.927,-47.802Z" style="fill:#fafafa;"/><path d="M199.187,182.529l-32.927,47.802l-65.853,0l-32.927,-47.802l131.707,-0Zm-31.718,16.666l-68.271,0l9.966,14.469l48.338,0l9.967,-14.469Z" style="fill:#0a0a0a;"/><path d="M165.585,238.554c0.617,1.852 0.617,5.555 0,7.407c-0.617,1.852 -2.218,3.613 -3.703,3.703c-10.133,0.617 -46.964,0.617 -57.097,0c-1.485,-0.09 -3.086,-1.851 -3.704,-3.703c-0.617,-1.852 -0.617,-5.555 0,-7.407c0.618,-1.851 2.219,-3.612 3.704,-3.703c10.133,-0.617 46.964,-0.617 57.097,0c1.485,0.091 3.086,1.852 3.703,3.703Z" style="fill:#0a0a0a;"/><path d="M165.585,238.554c0.617,1.852 0.617,5.555 0,7.407c-0.617,1.852 -2.218,3.613 -3.703,3.703c-10.133,0.617 -46.964,0.617 -57.097,0c-1.485,-0.09 -3.086,-1.851 -3.704,-3.703c-0.617,-1.852 -0.617,-5.555 0,-7.407c0.618,-1.851 2.219,-3.612 3.704,-3.703c10.133,-0.617 46.964,-0.617 57.097,0c1.485,0.091 3.086,1.852 3.703,3.703Zm-1.976,0.659c-0.211,-0.634 -0.591,-1.252 -1.045,-1.72c-0.263,-0.271 -0.514,-0.544 -0.809,-0.562c-10.088,-0.615 -46.755,-0.615 -56.844,-0c-0.294,0.018 -0.545,0.291 -0.808,0.562c-0.454,0.468 -0.834,1.086 -1.045,1.72c-0.508,1.522 -0.508,4.567 -0,6.089c0.211,0.634 0.591,1.252 1.045,1.72c0.263,0.271 0.514,0.545 0.808,0.563c10.089,0.614 46.756,0.614 56.844,-0c0.295,-0.018 0.546,-0.292 0.809,-0.563c0.454,-0.468 0.834,-1.086 1.045,-1.72c0.507,-1.522 0.507,-4.567 -0,-6.089Z" style="fill:#0a0a0a;"/><path d="M160.031,255.12c0.511,1.846 0.511,5.539 0,7.386c-0.511,1.846 -1.836,3.602 -3.065,3.693c-8.389,0.615 -38.877,0.615 -47.265,-0c-1.229,-0.091 -2.555,-1.847 -3.065,-3.693c-0.511,-1.847 -0.511,-5.54 -0,-7.386c0.51,-1.846 1.836,-3.603 3.065,-3.693c8.388,-0.615 38.876,-0.615 47.265,0c1.229,0.09 2.554,1.847 3.065,3.693Z" style="fill:#0a0a0a;"/><path d="M160.031,255.12c0.511,1.846 0.511,5.539 0,7.386c-0.511,1.846 -1.836,3.602 -3.065,3.693c-8.389,0.615 -38.877,0.615 -47.265,-0c-1.229,-0.091 -2.555,-1.847 -3.065,-3.693c-0.511,-1.847 -0.511,-5.54 -0,-7.386c0.51,-1.846 1.836,-3.603 3.065,-3.693c8.388,-0.615 38.876,-0.615 47.265,0c1.229,0.09 2.554,1.847 3.065,3.693Zm-50.06,9.009c8.459,0.6 38.266,0.6 46.724,0c0.079,-0.064 0.322,-0.266 0.45,-0.426c0.384,-0.476 0.7,-1.108 0.878,-1.753c0.434,-1.569 0.434,-4.706 0,-6.274c-0.178,-0.646 -0.494,-1.278 -0.878,-1.754c-0.128,-0.159 -0.371,-0.362 -0.45,-0.426c-8.458,-0.6 -38.265,-0.6 -46.724,0c-0.078,0.064 -0.322,0.267 -0.45,0.426c-0.383,0.476 -0.699,1.108 -0.878,1.754c-0.434,1.568 -0.434,4.705 0,6.274c0.179,0.645 0.495,1.277 0.878,1.753c0.128,0.16 0.372,0.362 0.45,0.426Z" style="fill:#0a0a0a;"/><g><path d="M2.007,123.738l32.219,-0" style="fill:none;stroke:#0a0a0a;stroke-width:4.17px;"/><path d="M232.292,123.738l32.218,-0" style="fill:none;stroke:#0a0a0a;stroke-width:4.17px;"/><path d="M30.028,30.028l28.171,28.171" style="fill:none;stroke:#0a0a0a;stroke-width:4.17px;"/><path d="M236.667,30.028l-28.171,28.171" style="fill:none;stroke:#0a0a0a;stroke-width:4.17px;"/><path d="M133.333,2.189l0,23.513" style="fill:none;stroke:#0a0a0a;stroke-width:4.17px;"/></g></svg>